<svg xmlns="http://www.w3.org/2000/svg" fill="none" viewBox="0 0 336 201">
  <path fill="#f4d04e" d="M0 0h336v201H0z"/>
  <path fill="#111" d="M235 209 451-7l68 67-217 216Z"/>
  <rect width="139" height="95" x="7" y="117" fill="#fff" rx="47.5" transform="rotate(-45)"/>
  <rect width="139" height="95" x="-17" y="93" fill="#111" rx="47.5" transform="rotate(-45)"/>
  <rect width="139" height="95" x="-41" y="69" fill="#fff" rx="47.5" transform="rotate(-45)"/>
  <rect width="204" height="270" x="40" y="70" fill="#111" rx="102" transform="scale(-1 1) rotate(45)"/>
  <path stroke="#111" stroke-width="3" d="M70 72v23h23m43-43V29h-23m-10 10v47M210-37l61 60c13 13 13 33 0 46l-78 77a32 32 0 0 0 0 46l70 69"/>
  <path stroke="#111" stroke-width="3" d="m253 150-12 12 14 14v13h13l14 13 12-12m-15-66-12 12 14 15v12h12l14 14 12-12m-15-66-12 12 14 14v13h13l14 14 12-12m-16-66-12 12 14 14v13h13l14 13 12-12"/>
  <path stroke-width="3" d="m253 150-12 12 14 14v13h13l14 13 12-12m-15-66-12 12 14 15v12h12l14 14 12-12m-15-66-12 12 14 14v13h13l14 14 12-12m-16-66-12 12 14 14v13h13l14 13 12-12" mask="url(#a)" style="stroke:#fff"/>
  <defs>
    <mask id="a" maskUnits="userSpaceOnUse">
      <path fill="#111" d="M235 209 451-7l68 67-217 216Z"/>
    </mask>
  </defs>
</svg>
